<svg width="134" height="85" viewBox="0 0 134 85" fill="none" xmlns="http://www.w3.org/2000/svg">
<g clip-path="url(#clip0_157_798)">
<path d="M120.699 51.9549C120.909 51.8857 121.017 51.6593 120.947 51.4517C120.826 51.0994 121.042 50.6402 121.429 50.42C121.804 50.2124 122.325 50.1935 122.852 50.3697C123.373 50.5395 123.849 50.8666 124.32 51.1875C124.427 51.2567 124.561 51.2755 124.682 51.2315C124.802 51.1875 124.891 51.0868 124.929 50.9673C124.98 50.7849 125.126 50.6213 125.323 50.5269C125.526 50.4263 125.742 50.4137 125.92 50.4829C126.098 50.5521 126.244 50.7094 126.32 50.917C126.397 51.1246 126.39 51.3384 126.301 51.5083C126.244 51.6215 126.238 51.7536 126.301 51.8669C126.358 51.9801 126.473 52.0619 126.6 52.0807C126.879 52.1185 127.165 52.087 127.413 52.0619C127.654 52.0367 127.877 52.0115 128.01 52.0493C128.118 52.1248 128.226 52.6406 128.137 53.1124C128.105 53.276 128.181 53.4395 128.328 53.5213C128.467 53.6031 128.652 53.5905 128.779 53.4899C128.785 53.4899 128.798 53.4773 128.842 53.4899C128.963 53.5213 129.102 53.6534 129.147 53.7855C129.204 53.9365 129.223 54.1189 129.249 54.3077C129.274 54.5467 129.306 54.792 129.401 55.0374C129.465 55.1946 129.611 55.289 129.769 55.289C129.82 55.289 129.865 55.2827 129.909 55.2638C130.112 55.1884 130.214 54.9556 130.138 54.7543C130.074 54.597 130.055 54.4146 130.03 54.2133C130.004 53.9868 129.973 53.7541 129.89 53.515C129.757 53.1439 129.42 52.8293 129.052 52.7287C129.02 52.7224 128.988 52.7161 128.956 52.7098C128.956 52.1185 128.772 51.4643 128.239 51.307C127.94 51.2189 127.622 51.2567 127.318 51.2881C127.267 51.2881 127.216 51.3007 127.165 51.307C127.178 51.0931 127.146 50.8729 127.064 50.659C126.911 50.2439 126.6 49.9167 126.212 49.7658C125.825 49.6148 125.374 49.64 124.967 49.835C124.739 49.9482 124.542 50.1118 124.396 50.3005C123.996 50.0426 123.576 49.7972 123.106 49.64C122.363 49.3946 121.614 49.4324 121.042 49.7532C120.324 50.1558 119.956 51.0176 120.197 51.7285C120.267 51.9361 120.496 52.043 120.699 51.9738V51.9549Z" fill="#11509D"/>
<path d="M120.731 58.9817C120.909 59.183 121.048 59.3402 121.144 59.4912L121.207 59.5981C121.372 59.8812 121.652 60.3593 122.027 60.548C122.249 60.6613 122.687 60.7745 123.145 60.7745C123.678 60.7745 124.237 60.6235 124.517 60.1391C124.682 59.8561 124.974 59.5604 125.26 59.2773C125.558 58.9754 125.87 58.6671 126.073 58.3274C126.162 58.1764 126.117 57.9877 125.965 57.8934C125.819 57.8053 125.622 57.8493 125.527 58.0003C125.291 58.3777 124.707 58.8495 124.345 58.9502C123.526 59.1704 123.284 59.1515 122.414 59.0194C121.506 58.881 120.826 58.1639 120.413 57.5788C120.312 57.4341 120.115 57.4027 119.969 57.5033C119.88 57.5662 119.835 57.6606 119.835 57.7613C119.835 57.8242 119.854 57.8871 119.892 57.9437C120.21 58.3966 120.496 58.7174 120.724 58.9754L120.731 58.9817ZM122.325 59.6485C123.081 59.7617 123.443 59.8057 124.066 59.6736C124.034 59.724 124.002 59.7743 123.97 59.8246C123.678 60.3216 122.579 60.1203 122.325 59.9882C122.192 59.919 122.046 59.7302 121.931 59.5541C122.065 59.5918 122.192 59.6233 122.325 59.6422V59.6485Z" fill="#11509D"/>
<path d="M123.132 57.9751C123.132 57.9751 123.189 57.9751 123.214 57.9751C123.761 57.9751 124.072 57.6858 124.123 57.1322C124.135 57.0001 124.04 56.8868 123.907 56.8743C123.773 56.868 123.659 56.956 123.646 57.0881C123.621 57.4153 123.5 57.5222 123.151 57.5033C123.011 57.497 122.903 57.4404 122.827 57.3335C122.725 57.1888 122.694 56.9812 122.757 56.7736C122.795 56.6478 122.719 56.5157 122.592 56.4842C122.465 56.4465 122.332 56.522 122.3 56.6478C122.204 56.9875 122.255 57.3524 122.446 57.6103C122.605 57.8304 122.852 57.9626 123.132 57.9814V57.9751Z" fill="#11509D"/>
<path d="M126.46 57.5096C126.536 57.5096 126.606 57.5033 126.676 57.4845C127.006 57.3964 127.267 57.1636 127.356 56.868C127.445 56.5723 127.356 56.2704 127.108 56.0061L127.051 55.9558C126.816 55.7608 126.46 55.7042 126.13 55.8111C125.812 55.9118 125.577 56.1445 125.514 56.4213C125.444 56.6981 125.539 57.0001 125.774 57.2265C125.965 57.4153 126.219 57.5159 126.466 57.5159L126.46 57.5096Z" fill="#11509D"/>
<path d="M120.534 56.9623C120.705 56.8806 120.832 56.6918 120.877 56.4654C120.928 56.2012 120.864 55.9432 120.699 55.7545C120.534 55.5658 120.153 55.2953 119.518 55.6035C119.346 55.6853 119.219 55.8426 119.168 56.0313C119.105 56.2641 119.149 56.5534 119.289 56.7547C119.435 56.9749 119.746 57.0567 120.038 57.0567C120.235 57.0567 120.42 57.019 120.54 56.9623H120.534Z" fill="#11509D"/>
<path d="M122.852 55.333C123.011 55.1884 123.024 55.0437 123.011 54.9493C122.986 54.7857 122.852 54.6411 122.636 54.5404C122.535 54.4901 122.363 54.509 122.23 54.5719C122.103 54.6348 122.014 54.7354 121.982 54.8612C121.931 55.0625 122.039 55.3016 122.236 55.4148C122.319 55.4589 122.401 55.484 122.49 55.484C122.617 55.484 122.744 55.4337 122.852 55.333Z" fill="#11509D"/>
<path d="M124.409 55.7797C124.409 55.7797 124.453 55.7797 124.472 55.7797C124.625 55.7797 124.771 55.6916 124.866 55.5406C124.974 55.3708 124.987 55.1758 124.885 55.0311C124.777 54.8738 124.574 54.7858 124.396 54.7858C124.237 54.792 124.11 54.8675 124.04 54.9933C123.964 55.1317 123.958 55.3079 124.034 55.4651C124.11 55.6224 124.25 55.7356 124.409 55.7608V55.7797Z" fill="#11509D"/>
<path d="M117.942 55.5092C117.974 55.5155 118.006 55.5218 118.044 55.5218C118.222 55.5218 118.38 55.4022 118.431 55.2261C118.571 54.6977 118.711 54.1504 118.997 53.71C119.282 53.2634 119.695 52.9803 120.102 52.9552C120.318 52.9426 120.483 52.7539 120.47 52.5337C120.458 52.3198 120.242 52.1562 120.045 52.1688C119.39 52.2191 118.749 52.6343 118.33 53.2886C117.98 53.8359 117.821 54.4398 117.669 55.0311C117.612 55.2387 117.745 55.4589 117.955 55.5092H117.942Z" fill="#11509D"/>
<path d="M118.025 58.1764C118.076 59.2647 118.184 59.9253 118.99 60.6109C119.829 61.3218 120.826 61.6175 121.811 61.8062C121.811 61.9823 121.811 62.1773 121.811 62.366V62.8253C121.811 63.0392 121.995 63.2153 122.211 63.2153C122.427 63.2153 122.605 63.0392 122.605 62.819V62.3535C122.598 62.0452 122.592 61.737 122.598 61.4791C122.598 61.284 122.459 61.1205 122.268 61.089C121.29 60.9255 120.28 60.6801 119.499 60.0133C118.889 59.4912 118.851 59.12 118.794 57.7613C118.787 57.5537 118.616 57.3838 118.4 57.3838C118.298 57.3838 118.19 57.3838 118.082 57.3901C117.58 57.409 117.256 57.4027 116.971 57.0819C116.583 56.6478 116.634 55.9873 116.742 55.8489C116.793 55.786 116.926 55.7671 116.977 55.786C117.047 55.981 117.263 56.0942 117.466 56.0313C117.676 55.9684 117.796 55.7482 117.733 55.5406C117.65 55.2638 117.415 55.0625 117.104 55.0059C116.736 54.9367 116.335 55.0814 116.113 55.3645C115.738 55.8426 115.77 56.9183 116.373 57.5977C116.888 58.1764 117.517 58.189 118.012 58.1764H118.025Z" fill="#11509D"/>
<path d="M124.11 51.8354C123.284 51.6341 122.376 51.6341 121.474 51.8354C121.258 51.8857 121.125 52.0933 121.175 52.3072C121.226 52.5211 121.442 52.6532 121.652 52.6029C122.433 52.4267 123.221 52.4267 123.926 52.6029C123.957 52.6092 123.989 52.6155 124.021 52.6155C124.199 52.6155 124.364 52.4959 124.408 52.3198C124.459 52.1122 124.332 51.8983 124.116 51.8417L124.11 51.8354Z" fill="#11509D"/>
<path d="M123.576 63.0832C123.792 63.0832 123.97 62.9071 123.97 62.6932V61.9886C124.624 61.9194 125.285 61.8313 125.927 61.6049C126.809 61.2903 127.502 60.7431 127.87 60.0637C128.029 59.7743 128.124 59.466 128.213 59.1704C128.658 59.2207 129.128 59.0823 129.509 58.7866C129.941 58.4532 130.195 57.9751 130.22 57.4782C130.239 56.9812 130.017 56.4842 129.617 56.1194C129.318 55.8489 128.956 55.6853 128.582 55.6413C128.423 54.8487 128.162 54.1944 127.788 53.6471C127.254 52.8734 126.473 52.345 125.647 52.2003C125.431 52.1625 125.228 52.3072 125.19 52.5211C125.152 52.735 125.298 52.9363 125.514 52.974C126.13 53.081 126.721 53.4899 127.14 54.0938C127.502 54.6159 127.737 55.2764 127.864 56.1005C127.896 56.3144 128.093 56.4591 128.309 56.4339C128.569 56.3962 128.861 56.5031 129.09 56.7044C129.318 56.912 129.445 57.1888 129.433 57.453C129.42 57.7172 129.274 57.9814 129.033 58.1702C128.791 58.3589 128.493 58.4344 128.232 58.384C127.819 58.296 127.597 58.5099 127.534 58.7112L127.483 58.8873C127.394 59.1767 127.318 59.4535 127.184 59.6988C126.911 60.2083 126.371 60.6235 125.672 60.8689C125.006 61.1016 124.269 61.1771 123.557 61.2463C123.354 61.2652 123.202 61.435 123.202 61.6363V62.6932C123.189 62.9133 123.367 63.0895 123.589 63.0895L123.576 63.0832Z" fill="#11509D"/>
<path d="M133.809 64.983C133.695 64.8698 133.555 64.8194 133.454 64.7817L133.543 63.5298C133.555 63.3285 133.46 63.1398 133.282 63.0266C133.085 62.9008 132.825 62.8882 132.628 62.9951C132.355 63.1398 132.253 63.4166 132.183 63.6556C132.164 63.7186 132.139 63.8255 132.12 63.8444C132.107 63.8569 132.037 63.8821 131.815 63.8758C131.389 63.8695 130.881 63.8192 130.392 63.7752C129.947 63.7311 129.496 63.6934 129.084 63.6745C129.103 63.6053 129.122 63.5361 129.141 63.4669C129.166 63.3537 129.141 63.2405 129.084 63.1461C129.02 63.0517 128.912 62.9951 128.798 62.9825C127.762 62.8756 126.708 62.8441 125.666 62.8945C125.45 62.9071 125.279 63.0895 125.291 63.3034C125.304 63.5235 125.507 63.6934 125.704 63.6745C125.812 63.6745 125.927 63.6745 126.035 63.6745C126.035 63.6808 126.035 63.6871 126.035 63.6934C126.06 63.8192 126.022 63.9576 125.939 64.052C125.825 64.1841 125.844 64.3854 125.984 64.4923C126.041 64.5426 126.117 64.5615 126.187 64.5615C126.276 64.5615 126.371 64.5238 126.435 64.4483C126.619 64.2281 126.695 63.9387 126.67 63.6556C126.829 63.6556 126.987 63.6556 127.146 63.6556C127.133 64.1337 126.93 64.6055 126.829 64.7628C126.733 64.9075 126.778 65.1025 126.924 65.1969C126.975 65.2283 127.038 65.2472 127.095 65.2472C127.197 65.2472 127.299 65.1969 127.362 65.1025C127.527 64.8509 127.762 64.2721 127.781 63.6808C127.94 63.6871 128.105 63.6934 128.264 63.706C128.105 64.2973 127.934 64.8823 127.743 65.4548C127.483 65.4045 127.216 65.373 126.949 65.3541C126.835 65.3541 126.727 65.3919 126.644 65.4674C126.568 65.5491 126.524 65.6561 126.53 65.7693C126.581 66.7129 126.6 67.6754 126.581 68.619C125.577 68.9587 124.497 69.16 123.615 69.1411C122.35 69.1223 120.597 68.8769 119.708 68.5938L119.46 68.5184C118.901 68.3422 117.923 68.0403 117.491 67.6754C117.555 67.5936 117.631 67.493 117.701 67.4049C117.739 67.3546 117.783 67.298 117.822 67.2476C118.762 67.7949 120.794 68.3988 121.976 68.5561C122.312 68.6001 122.693 68.619 123.1 68.619C124.154 68.619 125.349 68.4806 126.257 68.3108C126.428 68.2793 126.543 68.1158 126.511 67.9396C126.479 67.7698 126.301 67.6565 126.136 67.688C124.936 67.9207 123.208 68.0843 122.065 67.927C120.864 67.7635 119.022 67.1847 118.203 66.7255C118.336 66.5368 118.457 66.3418 118.565 66.1342C119.365 66.5682 120.991 67.0967 121.969 67.298C122.535 67.4112 123.195 67.4678 124.027 67.4678C124.586 67.4678 125.228 67.4426 125.971 67.3923C126.149 67.3797 126.276 67.2288 126.263 67.0589C126.251 66.8828 126.098 66.7632 125.927 66.7632C124.129 66.8828 122.986 66.8576 122.096 66.6815C121.137 66.4865 119.498 65.9455 118.812 65.5491C118.819 65.524 118.832 65.4988 118.844 65.4737C118.876 65.3478 118.844 65.2094 118.749 65.1151C118.66 65.0207 118.527 64.9704 118.393 64.9893C118.044 65.0459 117.688 65.0773 117.332 65.0836C117.345 64.2721 117.491 63.4543 117.752 62.6869H117.911C117.891 62.8316 117.86 63.0014 117.822 63.209C117.72 63.7437 117.606 64.3476 117.669 64.6936C117.695 64.8446 117.828 64.9515 117.98 64.9515C117.999 64.9515 118.018 64.9515 118.038 64.9515C118.209 64.9201 118.323 64.7565 118.292 64.5867C118.247 64.3539 118.368 63.7374 118.444 63.3285C118.489 63.0895 118.533 62.8756 118.546 62.7246H118.717C118.616 63.165 118.558 63.6053 118.577 64.0457C118.584 64.2155 118.724 64.3476 118.895 64.3476C118.895 64.3476 118.901 64.3476 118.908 64.3476C119.086 64.3413 119.219 64.1966 119.213 64.0205C119.194 63.5927 119.244 63.1713 119.359 62.7561L120.724 62.8127C120.851 62.8127 120.909 62.8316 120.909 62.819C120.909 62.8379 120.934 62.8882 120.934 62.8882C121.112 63.448 121.557 63.9199 122.147 64.1715C122.738 64.4231 123.392 64.4231 123.926 64.1589C124.288 63.9828 124.586 63.7186 124.847 63.3411C124.967 63.1587 124.923 62.9196 124.739 62.7938C124.555 62.6743 124.313 62.7183 124.186 62.8945C124.008 63.1587 123.805 63.3411 123.57 63.4543C123.246 63.6116 122.84 63.6116 122.458 63.448C122.077 63.2845 121.798 62.9951 121.684 62.6365C121.664 62.5736 121.639 62.4919 121.582 62.4038C121.36 62.0515 120.934 62.0326 120.756 62.0263L117.682 61.9005C117.244 61.8754 117.097 62.1396 117.059 62.2465C117.053 62.2654 117.047 62.2843 117.04 62.3031C116.685 62.2402 116.373 61.8628 116.094 61.4539C115.891 61.1582 115.637 60.8311 115.389 60.5229C115.097 60.158 114.798 59.7743 114.652 59.5164C114.633 59.1326 114.766 58.7678 115.039 58.4595C115.344 58.1198 115.617 57.3146 115.382 56.9057C115.294 56.7547 115.135 56.6604 114.938 56.6415C114.55 56.6038 113.991 56.8994 113.75 57.1825C113.61 57.3461 113.629 57.5977 113.794 57.7361C113.96 57.8745 114.214 57.8556 114.353 57.6921C114.417 57.6166 114.538 57.5411 114.652 57.4908C114.614 57.648 114.538 57.8304 114.442 57.9374C114.01 58.4218 113.807 59.032 113.871 59.661C113.871 59.7051 113.89 59.7554 113.909 59.7994C114.074 60.1328 114.411 60.5543 114.766 61.0073C115.001 61.3029 115.243 61.6112 115.44 61.8942C115.675 62.2339 116.126 62.8945 116.812 63.0643C116.735 63.36 116.678 63.6619 116.634 63.9639C116.018 63.9136 115.421 63.448 114.722 62.4856C114.544 62.2465 114.379 61.9697 114.207 61.6929C113.725 60.9129 113.274 60.1706 112.613 59.9504C112.473 59.9064 112.276 59.8561 112.054 59.812C111.787 59.7554 111.489 59.6862 111.279 59.6044C111.235 59.5856 111.171 59.5289 111.146 59.4472C111.139 59.422 111.133 59.4031 111.127 59.3968C111.254 59.3591 111.578 59.4094 111.724 59.4283C111.851 59.4472 111.965 59.4597 112.054 59.466C112.251 59.466 112.391 59.3654 112.448 59.1955C112.505 59.032 112.442 58.8433 112.295 58.7489C112.175 58.6671 112.06 58.5539 111.933 58.4344C111.8 58.3085 111.673 58.1827 111.52 58.0758C111.228 57.8619 111.177 57.7738 111.197 57.6983C111.254 57.6669 111.425 57.6795 111.933 57.8934L112.073 57.95C112.257 58.0255 112.473 57.95 112.575 57.7738C112.67 57.5977 112.619 57.3775 112.454 57.2643C112.245 57.1196 112.105 56.868 112.086 56.6289C112.118 56.6289 112.156 56.6289 112.168 56.6289C112.245 56.6792 112.327 56.7673 112.41 56.868C112.518 56.9938 112.645 57.1322 112.804 57.2391C112.988 57.3586 113.235 57.3146 113.356 57.1322C113.477 56.9497 113.432 56.7044 113.248 56.5849C113.172 56.5346 113.089 56.4465 113.007 56.3458C112.899 56.22 112.772 56.0816 112.613 55.9747C112.397 55.83 112.073 55.7923 111.8 55.8803C111.578 55.9558 111.412 56.1005 111.343 56.2892C111.311 56.3773 111.305 56.4528 111.305 56.5157C111.305 56.6415 111.311 56.7673 111.336 56.8931C111.05 56.8806 110.771 56.9497 110.574 57.214C110.39 57.4656 110.377 57.6983 110.403 57.843C110.453 58.1764 110.707 58.4155 110.962 58.6105C110.758 58.6545 110.58 58.7552 110.46 58.9565C110.333 59.1704 110.314 59.4346 110.409 59.6925C110.511 59.9819 110.733 60.2146 111.006 60.3216C111.273 60.4222 111.603 60.4977 111.895 60.5606C112.079 60.6046 112.251 60.6361 112.372 60.6801C112.759 60.8122 113.178 61.4854 113.54 62.083C113.718 62.3723 113.902 62.668 114.087 62.9259C114.671 63.7311 115.471 64.6244 116.564 64.7188C116.551 64.9704 116.545 65.222 116.551 65.4737C116.558 65.6812 116.729 65.8511 116.939 65.8574C117.237 65.8574 117.542 65.8574 117.847 65.8322C117.637 66.216 117.339 66.5934 117.097 66.8954C116.881 67.1721 116.723 67.3734 116.653 67.537C116.602 67.6565 116.615 67.7886 116.685 67.9019C117.123 68.5813 118.4 68.9776 119.244 69.2418L119.486 69.3173C120.451 69.6318 122.274 69.8897 123.627 69.9023C123.653 69.9023 123.678 69.9023 123.703 69.9023C124.097 69.9023 124.529 69.8583 124.974 69.7891C124.72 70.6698 124.993 71.7015 125.107 72.0537C125.158 72.211 125.215 72.3683 125.266 72.5255C125.431 73.0036 125.59 73.4566 125.622 73.9032C124.269 73.9409 122.903 73.9913 121.55 74.0605L121.512 72.4249C121.506 72.1103 121.493 71.5819 121.112 71.2297C120.953 71.085 120.699 71.0913 120.553 71.2548C120.407 71.4184 120.413 71.6637 120.578 71.8084C120.705 71.9216 120.718 72.1921 120.724 72.4626L120.769 74.4819C120.769 74.5889 120.82 74.6895 120.896 74.7587C120.972 74.8279 121.067 74.8657 121.163 74.8657C121.169 74.8657 121.175 74.8657 121.182 74.8657C121.518 74.8468 121.861 74.8342 122.198 74.8216C122.198 74.872 122.211 74.9223 122.23 74.9663C122.357 75.2494 122.243 75.6269 121.982 75.7967L121.919 75.8344C121.83 75.8911 121.703 75.9666 121.601 76.0924C121.493 76.2371 121.442 76.4258 121.474 76.5956C121.499 76.7529 121.588 76.885 121.715 76.9668C121.868 77.0674 122.02 77.0674 122.109 77.0674H125.247C125.463 77.0611 125.641 76.885 125.641 76.6711V74.7084C125.641 74.7084 125.641 74.6958 125.641 74.6895C125.768 74.6895 125.895 74.6832 126.016 74.677C126.219 74.677 126.384 74.5197 126.403 74.3184C126.473 73.5887 126.238 72.9156 126.009 72.2613C125.958 72.1104 125.901 71.9594 125.857 71.8084C125.634 71.1227 125.514 70.1414 125.895 69.6381C125.908 69.6255 125.908 69.6066 125.914 69.5941C126.32 69.4934 126.727 69.3802 127.121 69.2355C127.273 69.1789 127.375 69.0405 127.381 68.8769C127.407 67.9774 127.394 67.0589 127.356 66.1531C127.546 66.1782 127.731 66.216 127.915 66.2663C128.118 66.3166 128.328 66.2097 128.391 66.0147C128.404 65.9832 128.41 65.9517 128.423 65.9203C128.436 65.9203 128.448 65.9266 128.467 65.9266C128.715 65.914 129.338 66.0272 129.706 66.0964C129.897 66.1342 130.055 66.1593 130.132 66.1656L130.195 66.1719C130.246 66.1719 130.322 66.1845 130.341 66.1971C130.348 66.1971 130.379 66.2285 130.436 66.3669C130.551 66.6437 130.621 66.9394 130.652 67.2539C130.665 67.3923 130.684 67.5936 130.837 67.7698C130.945 67.8893 131.11 67.9648 131.275 67.9648C131.313 67.9648 131.351 67.9648 131.383 67.9522C131.567 67.9144 131.713 67.7949 131.77 67.6188L131.885 67.2854C132.221 67.3797 132.59 67.3797 132.914 67.2602C133.085 67.1973 133.193 67.0275 133.174 66.8513C133.155 66.6437 133.111 66.4424 133.047 66.2411C133.155 66.2285 133.276 66.2097 133.396 66.1656C133.682 66.0713 133.917 65.8134 133.981 65.5303C134.032 65.3038 133.974 65.0836 133.809 64.9264V64.983ZM124.821 76.3314H122.605C122.992 75.954 123.144 75.3564 122.979 74.8342C123.595 74.8091 124.212 74.7839 124.828 74.765V76.3314H124.821ZM132.876 65.524C132.71 65.5429 132.52 65.568 132.323 65.6624C132.126 65.7567 132.05 65.9895 132.139 66.1845C132.209 66.3229 132.259 66.4739 132.304 66.6249C132.145 66.6186 131.986 66.5682 131.853 66.4802C131.751 66.411 131.624 66.3921 131.504 66.4361C131.421 66.4613 131.345 66.5179 131.3 66.5934C131.256 66.4361 131.205 66.2852 131.148 66.1342C131.078 65.958 130.964 65.7316 130.741 65.5932C130.57 65.4862 130.386 65.4674 130.195 65.4485C130.125 65.4422 129.992 65.417 129.827 65.3856C129.382 65.3038 128.963 65.2346 128.645 65.2094C128.721 64.9578 128.798 64.7125 128.868 64.4609C128.874 64.4609 128.88 64.4609 128.887 64.4609C129.312 64.4671 129.82 64.5175 130.309 64.5615C130.818 64.6118 131.338 64.6622 131.796 64.6684C132.005 64.6684 132.406 64.681 132.679 64.3979L132.647 64.8068C132.647 64.8697 132.634 64.9767 132.672 65.0962C132.749 65.329 132.939 65.4359 133.085 65.4925C133.022 65.5051 132.945 65.5177 132.869 65.524H132.876Z" fill="#11509D"/>
<path d="M119.683 71.7455L116.405 72.5633C116.284 72.5947 116.157 72.6262 116.081 72.6136C115.891 72.5884 115.7 72.3557 115.541 72.1355L114.404 70.5943C114.36 70.5377 114.334 70.4811 114.315 70.4433L117.25 69.3613C117.453 69.2858 117.561 69.0594 117.485 68.8581C117.409 68.6568 117.18 68.5498 116.977 68.6253L113.966 69.7325C113.928 69.745 113.864 69.7702 113.801 69.808C113.648 69.9023 113.547 70.0533 113.515 70.2294C113.515 70.2609 113.515 70.286 113.515 70.3112C113.509 70.3112 113.502 70.3112 113.49 70.3112C113.267 70.4119 112.943 70.3238 112.81 70.1162C112.753 70.0218 112.702 69.896 112.651 69.7576C112.531 69.4242 112.378 69.0153 111.927 68.8581C111.813 68.8203 111.692 68.8329 111.59 68.8958C111.489 68.9587 111.419 69.0594 111.406 69.1726C111.266 70.1162 111.387 71.368 111.514 72.4689C111.578 72.9973 112.003 73.3999 112.556 73.444C112.727 73.4566 112.886 73.4691 113.045 73.4691C113.286 73.4691 113.515 73.444 113.756 73.3874C113.883 73.3559 113.991 73.3056 114.125 73.2427C114.334 73.1483 114.589 73.0288 115.154 72.9156C115.351 73.1357 115.624 73.3496 115.986 73.3937C116.03 73.3937 116.075 73.3999 116.119 73.3999C116.297 73.3999 116.462 73.3559 116.602 73.3245L119.88 72.5067C120.089 72.4563 120.223 72.2425 120.166 72.0286C120.115 71.821 119.899 71.6889 119.683 71.7455ZM113.788 72.5381C113.706 72.5759 113.636 72.6136 113.553 72.6325C113.261 72.708 112.982 72.7017 112.619 72.6702C112.473 72.6576 112.315 72.5759 112.295 72.3871C112.245 71.9279 112.162 71.2359 112.137 70.5566C112.473 71.0661 113.178 71.28 113.75 71.0535L114.62 72.2362C114.207 72.3431 113.966 72.45 113.782 72.5381H113.788Z" fill="#11509D"/>
<path d="M125.552 65.7882H125.431C124.339 65.8008 123.729 65.8071 122.535 65.6309C122.02 65.5554 120.045 64.9452 119.632 64.6873C119.486 64.5993 119.289 64.637 119.194 64.788C119.098 64.9327 119.143 65.1277 119.295 65.222C119.822 65.5492 121.906 66.1782 122.439 66.26C123.392 66.4047 124.002 66.4298 124.726 66.4298C124.948 66.4298 125.177 66.4298 125.438 66.4298H125.558C125.736 66.4298 125.876 66.2852 125.869 66.109C125.863 65.9329 125.704 65.7693 125.546 65.8008L125.552 65.7882Z" fill="#11509D"/>
<path d="M126.123 65.1151C126.111 64.9389 125.958 64.8131 125.78 64.8257C124.396 64.9327 123.322 64.7188 122.535 64.5301C122.128 64.4294 121.086 64.1337 120.178 63.5487C120.032 63.4543 119.835 63.4921 119.74 63.6431C119.645 63.7877 119.689 63.9828 119.835 64.0771C120.794 64.6936 121.842 65.0081 122.389 65.1403C123.068 65.3038 123.951 65.4862 125.05 65.4862C125.298 65.4862 125.558 65.4799 125.831 65.4548C126.009 65.4422 126.136 65.2912 126.123 65.1151Z" fill="#11509D"/>
<path d="M43.0405 7.75644V27.4967H62.9728V7.75644H43.0405ZM58.9902 23.5524H47.0168V11.6944H58.9902V23.5524Z" fill="#EC8919"/>
<path d="M0.279297 27.4967H20.2116L10.2455 21.3318L0.279297 27.4967Z" fill="#EC8919"/>
<path d="M85.7761 27.4967H105.702L95.7423 21.3318L85.7761 27.4967Z" fill="#EC8919"/>
<path d="M42.7988 6.1586H62.7311L52.765 0L42.7988 6.1586Z" fill="#EC8919"/>
<path d="M5.92633 84.6477C5.59603 84.8176 4.86556 84.9874 3.93818 84.9874C1.4927 84.9874 0.00634766 83.4714 0.00634766 81.1501C0.00634766 78.6338 1.76583 77.1177 4.12239 77.1177C5.04977 77.1177 5.71037 77.3127 5.9962 77.4574L5.68496 78.5646C5.31655 78.4073 4.81475 78.2689 4.1732 78.2689C2.60428 78.2689 1.47364 79.244 1.47364 81.0746C1.47364 82.7542 2.47089 83.8299 4.1605 83.8299C4.73217 83.8299 5.32925 83.7167 5.69131 83.5468L5.91998 84.6477H5.92633Z" fill="#11509D"/>
<path d="M7.3999 77.3442C7.9017 77.2561 8.60041 77.1869 9.5532 77.1869C10.5822 77.1869 11.3381 77.4008 11.8272 77.8097C12.2845 78.1809 12.5831 78.7848 12.5831 79.4956C12.5831 80.2065 12.3544 80.823 11.9225 81.2256C11.3635 81.7791 10.4806 82.0434 9.48333 82.0434C9.2229 82.0434 8.98153 82.0308 8.79732 81.9993V84.8742H7.3999V77.3442ZM8.79097 80.8985C8.96247 80.9425 9.19114 80.9551 9.47698 80.9551C10.5314 80.9551 11.1729 80.4455 11.1729 79.5522C11.1729 78.703 10.5759 78.2501 9.60402 78.2501C9.21655 78.2501 8.94342 78.2815 8.79097 78.3193V80.8985Z" fill="#11509D"/>
<path d="M18.3759 81.4898H15.4731V83.7356H18.7189V84.8805H14.063V77.2436H18.5474V78.3885H15.4731V80.3575H18.3759V81.4898Z" fill="#11509D"/>
<path d="M24.4106 82.7165L23.75 84.8805H22.2954L24.7663 77.2436H26.5639L29.0666 84.8805H27.5548L26.8561 82.7165H24.4106ZM26.6211 81.6596L26.0176 79.7787C25.8715 79.3132 25.7445 78.7911 25.6302 78.3507H25.6048C25.4904 78.7911 25.3761 79.3258 25.2363 79.7787L24.6393 81.6596H26.6147H26.6211Z" fill="#11509D"/>
<path d="M31.4419 77.2436V81.6974C31.4419 83.1946 32.0707 83.8865 33.0171 83.8865C34.0334 83.8865 34.6432 83.1946 34.6432 81.6974V77.2436H36.047V81.603C36.047 83.962 34.8211 85 32.9727 85C31.1243 85 30.0317 84.0124 30.0317 81.6156V77.2436H31.4355H31.4419Z" fill="#11509D"/>
<path d="M42.0622 84.8805L41.2301 83.3644C40.8998 82.7731 40.6839 82.3705 40.4616 81.9238H40.4298C40.2456 82.3642 40.0423 82.7731 39.7311 83.3644L38.9625 84.8805H37.3491L39.6358 81.018L37.438 77.2436H39.0514L39.8835 78.8162C40.1376 79.2943 40.3155 79.6655 40.5251 80.0932H40.5505C40.7537 79.6152 40.9189 79.2755 41.1539 78.8162L41.9797 77.2436H43.5931L41.3381 80.9677L43.682 84.8742H42.0559L42.0622 84.8805Z" fill="#11509D"/>
<path d="M54.15 81.7603C54.1055 80.7726 54.0484 79.5837 54.0611 78.552H54.0293C53.7752 79.483 53.4576 80.5147 53.1146 81.4772L51.9967 84.7861H50.9105L49.8815 81.5212C49.583 80.5462 49.3098 79.5082 49.1066 78.552H49.0812C49.0494 79.5459 48.9986 80.7601 48.9414 81.8043L48.7699 84.8742H47.4551L47.9696 77.2373H49.8243L50.8279 80.3071C51.1011 81.2004 51.3425 82.1063 51.5394 82.9555H51.5711C51.7744 82.1314 52.0412 81.1878 52.3397 80.2945L53.4005 77.2373H55.2298L55.6745 84.8742H54.3024L54.1564 81.7603H54.15Z" fill="#11509D"/>
<path d="M58.7807 77.2436V84.8805H57.377V77.2436H58.7807Z" fill="#11509D"/>
<path d="M60.6672 77.2436H62.071V83.7104H65.2406V84.8742H60.6672V77.2373V77.2436Z" fill="#11509D"/>
<path d="M66.5745 77.2436H67.9782V83.7104H71.1478V84.8742H66.5745V77.2373V77.2436Z" fill="#11509D"/>
<path d="M76.801 81.4898H73.8982V83.7356H77.144V84.8805H72.488V77.2436H76.9725V78.3885H73.8982V80.3575H76.801V81.4898Z" fill="#11509D"/>
<path d="M82.8226 77.2436H84.2264V82.1943C84.2264 84.3017 83.1974 85.0063 81.6666 85.0063C81.2791 85.0063 80.7836 84.9371 80.4915 84.8239L80.663 83.7041C80.8916 83.7733 81.2029 83.8425 81.5332 83.8425C82.3335 83.8425 82.8226 83.4777 82.8226 82.1566V77.2499V77.2436Z" fill="#11509D"/>
<path d="M90.3559 81.4898H87.4531V83.7356H90.6989V84.8805H86.043V77.2436H90.5274V78.3885H87.4531V80.3575H90.3559V81.4898Z" fill="#11509D"/>
<path d="M93.6018 77.2436V81.6974C93.6018 83.1946 94.2306 83.8865 95.1834 83.8865C96.1997 83.8865 96.8095 83.1946 96.8095 81.6974V77.2436H98.2133V81.603C98.2133 83.962 96.9873 85 95.1389 85C93.2905 85 92.198 84.0124 92.198 81.6156V77.2436H93.6018Z" fill="#11509D"/>
<path d="M104.229 84.8805L103.396 83.3644C103.066 82.7731 102.85 82.3705 102.628 81.9238H102.596C102.412 82.3642 102.209 82.7731 101.897 83.3644L101.129 84.8805H99.5154L101.802 81.018L99.6043 77.2436H101.218L102.05 78.8162C102.304 79.2943 102.482 79.6655 102.691 80.0932H102.717C102.92 79.6152 103.085 79.2755 103.32 78.8162L104.146 77.2436H105.759L103.504 80.9677L105.848 84.8742H104.222L104.229 84.8805Z" fill="#11509D"/>
<path d="M106.28 28.8051V48.9228H85.897V28.8051H106.28ZM90.7689 37.7631C90.337 38.5557 90.2353 40.1347 90.4577 41.0028C90.4958 41.1538 90.8578 42.0597 90.9467 42.1037C91.0801 42.1666 91.0547 41.9967 91.0547 41.9338C91.0547 41.0343 90.699 40.1662 90.8578 39.1282C91.0992 37.5807 92.395 37.7065 93.6336 37.9455C94.0274 38.8011 93.7479 41.0657 94.5229 41.5941C94.6626 41.6885 94.8278 41.6759 94.8849 41.7388C95.0564 41.9275 94.8595 42.2295 95.4376 42.11L95.3677 41.6948C95.933 41.72 96.9557 41.116 97.4829 41.2922C97.6861 41.3614 97.5337 41.9024 98.0164 41.6633C98.2197 41.5627 98.1117 41.3173 98.1625 41.223C98.1943 41.1727 98.3912 41.223 98.4547 41.0594C98.6516 40.5813 98.2959 39.8453 98.1879 39.3546C98.0927 38.9143 97.8576 37.4171 97.6353 37.1466C97.4892 36.9705 97.4575 37.3102 97.4702 37.4423C97.5845 38.411 98.0037 39.449 98.1562 40.4241C98.1244 41.1538 97.0827 40.8896 96.5936 40.9462C96.0029 41.0154 94.7388 41.8269 94.4149 40.8833C94.2497 40.3989 94.2688 39.4868 94.1672 38.9269C94.1036 38.5557 94.0592 38.1531 93.8369 37.8386C94.4721 37.8512 95.1771 37.7128 95.7869 37.5303C96.3395 37.3605 97.8894 36.7503 98.2832 36.4232C98.7469 36.0394 98.9248 35.2468 98.9819 34.6744L99.4647 35.2594C99.6362 35.4418 100.278 36.008 100.487 36.0394C100.697 36.0709 100.907 35.9451 100.716 35.7375C100.284 35.3097 99.0581 34.429 99.0391 33.8062C99.0264 33.3533 99.2296 32.4852 99.5536 32.1455C99.6489 32.0448 99.9855 31.9002 100.011 31.7995C100.049 31.68 99.903 31.5793 99.8775 31.4598C99.814 31.1201 100.125 30.7112 100.259 30.3967C100.348 30.3527 100.532 31.1264 100.57 31.1767C100.621 31.2585 100.83 31.2963 100.849 31.4032C100.868 31.485 100.659 31.6297 100.716 31.7743C102.202 31.7114 102.691 33.4099 102.793 34.5863C102.539 34.7121 102.088 34.9071 101.878 35.077C101.643 35.2657 101.269 35.7375 101.021 35.9702C100.887 36.0961 100.633 36.0269 100.722 36.3414C100.843 36.7692 101.262 36.5679 101.402 36.6245C101.637 36.7251 101.878 37.2473 102.361 37.3353C102.996 37.4549 103.784 36.7629 103.962 36.1904C104.273 35.1713 103.568 35.1525 103.276 34.4982C102.92 33.7056 102.85 32.8501 102.247 32.1392C102.132 32.0071 101.637 31.6234 101.618 31.5919C101.548 31.4598 101.732 31.4913 101.783 31.4787C101.967 31.4284 102.298 31.4284 102.037 31.1767C101.974 31.1201 101.3 31.0509 101.929 30.793C102.164 30.6986 102.387 30.8245 102.317 30.5225C101.955 30.4407 101.739 30.3464 101.402 30.5917C101.218 30.7301 101.135 31.0761 100.926 31.2082C100.926 31.1138 100.945 31.0195 100.887 30.9314C100.729 30.6798 100.519 30.2772 100.386 29.9186C100.329 29.7739 100.316 29.3084 100.125 29.3461C100.043 29.365 99.6489 30.7364 99.4964 30.9251L99.4647 31.4095C99.0518 30.9628 98.8041 30.7301 98.1371 30.8874C97.864 30.9503 97.5019 31.1264 97.5972 31.4284C97.7433 31.8687 98.1943 31.2648 98.5246 31.2648C98.6897 31.2648 99.1534 31.5793 99.0454 31.68C98.2006 31.3906 98.0863 32.2084 97.7052 32.5544C97.629 32.6236 97.413 32.6362 97.3812 32.7557C97.3114 33.0451 97.7433 33.1206 97.9847 33.0073C98.3467 32.8375 98.2769 32.07 98.766 32.0952C98.5309 32.6173 98.2705 33.1583 97.8259 33.542C97.648 33.6993 97.3876 33.6553 97.4384 33.9887C97.521 34.4919 98.5182 33.7182 98.5182 33.4036C98.6008 34.1271 97.8005 34.5045 97.2351 34.7499C97.3558 35.3978 98.1181 34.7813 98.3785 34.5045C98.4801 34.8128 98.0228 35.1587 97.7814 35.2909C97.3812 35.511 97.0065 35.423 96.8794 35.9828C97.2161 36.1086 97.5908 35.8948 97.8767 35.7312C97.9084 35.7123 98.3213 35.3663 98.2006 35.6368C97.9021 36.3225 95.4947 37.1214 94.7579 37.1844C93.6209 37.2787 92.4394 36.9453 91.3469 37.241C90.8197 36.3037 90.5974 35.1273 89.2063 35.3412C87.5231 35.6054 88.768 37.8071 88.2154 38.6941C88.1201 38.8451 87.6311 39.1345 87.7009 39.2477C87.8851 39.2225 87.9105 39.556 88.0757 39.5182C88.3742 39.4553 88.7172 38.7696 88.749 38.4551C88.8189 37.6562 88.3679 36.2093 89.1873 35.706C90.0638 35.165 90.915 36.7314 90.9722 37.4297C90.9912 37.6436 90.8388 37.5933 90.7689 37.7254C90.8261 37.1403 90.3433 35.7878 89.6192 35.8067C89.1301 35.8193 88.8252 36.3603 88.8125 36.8006C88.7935 37.8386 89.4795 39.1093 88.1265 39.6943C88.3679 40.1347 88.514 40.1473 88.8951 39.8327C89.7335 39.1533 89.2825 38.0336 89.2381 37.1466C89.2 36.4295 89.5366 35.6809 90.0765 36.5553C89.2508 36.5364 89.8288 37.8197 89.8669 38.3167C89.9431 39.2603 89.4985 39.8013 88.6855 40.2102C88.9078 40.7197 88.9141 40.682 89.3334 40.4052C89.7526 40.1284 90.0511 39.795 90.1845 39.3169C90.4195 38.474 89.9368 37.8134 89.9368 36.9705C90.2417 36.788 90.6164 37.9078 90.7689 37.7254V37.7631ZM101.739 33.1646C101.44 32.8626 100.919 33.542 101.459 33.6867C101.789 33.7811 101.942 33.3722 101.739 33.1646ZM101.593 41.116C102.298 39.9397 101.58 37.675 100.608 36.8006C100.532 36.7314 100.487 36.6371 100.36 36.6622L100.862 37.5807C101.478 39.0401 101.637 41.3425 99.6235 41.6885C98.5627 41.8709 97.3495 41.808 96.2442 41.9905C94.7452 42.2358 93.1382 43.1542 91.6709 42.6258C91.601 42.6007 91.0293 42.2106 91.1119 42.4874C91.2135 42.802 91.8233 43.2675 92.1473 43.3115C93.2843 43.4625 94.7071 43.0033 95.8314 42.8208C97.2097 42.5944 99.9982 42.4371 101.053 41.657C101.129 41.6004 101.161 41.4746 101.23 41.4117C101.288 41.3614 101.383 41.418 101.396 41.4117C101.408 41.3928 101.58 41.1475 101.593 41.1286V41.116ZM97.0954 38.1783C97.3241 38.3544 97.4892 37.5366 96.7079 37.6247C96.4412 37.6562 96.2061 37.9518 96.1934 38.2223C96.1617 39.0212 97.2923 39.0024 97.4257 39.6818C97.5718 40.4304 96.9175 40.531 96.3268 40.3926C96.6508 41.116 97.6417 40.5688 97.6798 39.9208C97.7306 39.0464 96.5936 38.8074 96.4793 38.4173C96.3776 38.0588 96.7905 37.7065 97.0065 37.9329C97.0763 38.0021 97.0827 38.1846 97.0954 38.1909V38.1783ZM96.0537 40.5184C95.9775 40.4429 95.247 41.028 94.9103 40.5184C94.3514 39.6629 96.0918 38.9017 95.3867 38.1846C94.9548 37.7442 94.0528 38.1468 94.561 38.7319C94.7706 38.7507 94.5991 38.4551 94.6944 38.3167C94.8595 38.0713 95.5074 38.2475 95.3042 38.7822C95.0882 39.3546 94.2497 39.7132 94.7388 40.6191C95.0056 41.116 95.9711 41.1538 96.0537 40.5247V40.5184ZM100.367 42.2421L99.8839 42.3113C99.9474 43.28 100.081 44.2803 100.716 45.0603L99.255 45.3371C99.5663 44.9345 99.4837 42.6761 99.1852 42.4748C99.109 42.4245 98.766 42.5063 98.7596 42.5566C99.0137 43.4814 99.2296 44.7395 98.4357 45.4629L95.3105 46.0228C93.9957 45.9096 93.9194 44.3495 93.8623 43.343C93.7734 43.4184 93.4303 43.3996 93.4113 43.4122C93.3478 43.4751 93.5764 44.9785 93.659 45.1987L94.1799 46.1989L92.6491 46.3688C93.0365 45.7523 93.0302 44.2111 92.7062 43.5946C92.6109 43.4059 92.4077 43.4876 92.2298 43.4814C92.4204 44.1733 92.6236 45.01 92.3569 45.7083C92.052 46.4883 91.6709 46.3751 91.0039 46.1109C90.8896 46.0668 90.2925 45.6265 90.4386 45.9851C90.5974 46.3751 91.5819 46.9538 91.9885 47.0671C93.2144 47.4067 97.9847 46.5009 99.4837 46.2178C101.25 45.8844 103.619 45.5573 104.063 43.4814C103.955 43.3681 103.67 43.8273 103.619 43.8714C103.155 44.2866 102.272 44.8024 101.65 44.859C100.494 44.966 100.373 43.0284 100.373 42.2421H100.367Z" fill="#EC8919"/>
<path d="M106.28 50.2313V70.4182L85.897 70.3804V50.2313H106.28ZM93.551 51.9549C92.3632 51.7285 90.9976 52.0807 90.1528 52.9614C90.2353 53.0936 90.356 53.6849 90.4259 53.7415C90.5402 53.8421 90.5529 53.6849 90.5847 53.6534C91.6137 52.5211 91.7852 52.4142 93.3097 52.087C93.4113 52.0682 93.5256 52.087 93.551 51.9486V51.9549ZM98.1117 53.7037C97.2415 53.0369 96.0854 52.7161 94.9802 52.8545C94.3831 52.93 94.3196 53.0998 94.3831 53.6786C94.4594 53.7478 95.2724 53.5339 95.463 53.5339C97.1335 53.5339 99.0836 55.3708 99.109 57.0315C99.109 57.1888 99.0454 57.7424 98.9946 57.8619C98.8358 58.2393 98.2578 58.4218 98.3721 58.9313C98.5055 59.5415 99.3313 58.881 99.5218 58.5916C100.595 57.0001 99.4774 54.7543 98.1117 53.7037ZM92.8333 53.0747C91.9694 53.2949 92.3124 54.9808 93.3414 54.748C94.4276 54.5027 94.0084 52.7727 92.8333 53.0747ZM95.6345 61.3218H94.0338C94.0338 61.3218 94.0909 61.0702 93.8559 61.2526L93.8242 61.1142C94.0338 60.9947 94.3196 61.2526 94.345 61.2526H95.5265C95.7742 61.2526 96.8731 60.6864 97.1081 60.4914C99.2424 58.7363 98.3912 55.9495 95.717 55.4148C94.9929 55.2701 94.5991 55.4463 93.894 55.4651L94.561 55.2701C94.7452 55.3016 95.3296 55.2576 95.031 55.05C94.6626 54.792 93.3668 55.0248 92.9349 55.1821C91.9503 55.5343 91.1119 56.5094 90.9277 57.5348C90.8959 57.6921 90.807 57.9122 91.0357 57.8808C91.0611 57.9751 90.9404 57.95 90.8642 58.0192C89.5747 59.1263 89.9114 61.1331 90.8959 62.322C91.5438 63.1021 93.0619 64.0394 94.11 63.9261C94.4784 63.8884 94.1672 63.5235 94.3006 63.253C92.2807 63.1461 90.356 61.2652 91.0293 59.1892L91.3469 59.8057C92.1473 61.1016 93.6209 61.7747 95.1517 61.586C95.2661 61.5734 95.6853 61.5168 95.6218 61.3281H95.6345V61.3218ZM100.78 59.12C101.046 58.3274 101.154 57.5285 100.957 56.7044C100.938 56.6226 100.614 55.679 100.437 55.8803C100.557 56.9246 100.608 57.9563 100.087 58.9125L100.78 59.12ZM100.189 63.5676C99.3059 62.473 98.4102 61.3847 97.6226 60.2209C97.2796 60.6487 96.7206 61.0198 96.1934 61.1834C96.1934 61.3218 96.2697 61.4413 96.3332 61.5608C96.9048 62.6554 98.0609 64.1589 98.7977 65.1843C99.2805 65.8574 100.303 67.3734 100.97 67.7823C101.745 68.2604 102.596 67.3734 102.52 66.5997C102.469 66.0461 100.64 64.1274 100.189 63.5676ZM94.688 64.0457C95.5455 64.6244 96.492 63.7123 95.8758 62.8378C95.2597 61.9634 93.9576 62.7875 94.5356 63.8758C94.5483 63.901 94.669 64.0268 94.6944 64.0394L94.688 64.0457ZM95.7742 64.8383C94.9294 65.0522 94.1672 65.0019 93.3414 64.7314C92.846 64.5678 92.4077 64.2155 91.9948 64.0645C91.9186 64.0394 91.836 63.989 91.8106 64.1149C91.7788 64.2847 92.5538 64.7817 92.7126 64.8698C93.4812 65.3101 94.5673 65.675 95.463 65.5932C95.9838 65.5429 95.7234 65.2535 95.7742 64.8383ZM102.939 66.1468C103.295 65.9706 103.339 64.5615 103.187 64.3539C103.136 64.2847 101.758 63.8884 102.069 64.4923C102.132 64.6181 102.52 64.7439 102.66 64.876C103.022 65.222 102.946 65.6875 102.946 66.1405L102.939 66.1468ZM99.255 67.1784C99.255 67.1784 99.1026 67.1847 99.0454 67.1784C99.0137 67.7635 99.2106 68.3296 99.3313 68.8958C99.7759 68.9587 100.208 68.7951 100.646 68.7637C100.119 68.3674 99.7251 68.3296 99.4011 67.688C99.3313 67.5496 99.2741 67.1973 99.255 67.1784Z" fill="#EC8919"/>
<path d="M20.3769 28.8051V48.9228H0.16506L0.133301 28.8051H20.3769ZM11.6811 31.5605C10.5504 31.3717 9.46426 31.3717 8.32727 31.5793C6.94255 31.8373 5.81191 32.5167 4.75749 33.4162L4.44625 33.8314L8.575 34.5926C8.63851 34.4227 8.71474 34.5108 8.82907 34.4227L11.6811 31.5542V31.5605ZM17.2454 38.1783C17.0993 36.0206 16.0448 34.2089 14.3552 32.8752C13.9233 32.5355 13.4152 32.1392 12.8625 32.0448C13.1992 33.4225 13.1928 34.8631 13.5295 36.2408L17.2454 38.172V38.1783ZM3.57604 34.9386C2.21038 37.1403 2.19767 40.1473 3.50617 42.3742L5.54513 38.7004L3.57604 34.9323V34.9386ZM12.3607 37.0837L9.08315 35.9073L6.91079 38.5809L8.91165 41.6004L12.2718 40.5876L12.3607 37.0837ZM17.2454 39.556L13.3897 41.3488L12.7291 45.4818C13.2818 45.1736 14.0186 44.8779 14.514 44.4942C15.0095 44.1104 15.8861 43.1165 16.2164 42.5629C16.769 41.6508 17.112 40.6128 17.2454 39.556ZM8.92435 43.3178C8.72109 43.1102 8.62581 42.7831 8.23834 42.8523L4.37638 43.5128C6.12316 45.4378 8.54959 46.3562 11.1539 45.8844C11.2492 45.8655 11.3571 45.9536 11.3317 45.7837C10.525 44.966 9.72469 44.1356 8.92435 43.3115V43.3178Z" fill="#EC8919"/>
<path d="M84.8552 28.8051V48.9228H64.4719V28.8051H84.8552ZM73.517 33.4917C73.2439 32.9633 72.685 30.7804 71.783 31.3277C70.9572 31.831 71.8528 33.6993 71.7449 34.4605L68.4355 36.3666L69.8965 43.343L76.7819 39.5874C76.7629 39.3735 76.5406 39.3861 76.3818 39.4679C74.6667 40.2794 73.0407 41.267 71.3574 42.1351C71.2113 42.2106 70.3792 42.651 70.3157 42.5818L69.0961 36.7188L74.7684 33.5169L74.9081 33.4854L77.271 39.751C77.1631 39.751 77.0678 39.7824 76.9661 39.8265C75.1876 40.6631 73.2884 41.72 71.5416 42.6573C71.2113 42.8334 70.2966 43.2738 70.0743 43.4814C70.0235 43.5317 69.9663 43.5254 69.9727 43.6323C69.9727 43.6827 70.1442 44.1482 70.1759 44.1922C70.2649 44.3117 71.4781 44.5634 71.7512 44.6263C71.9545 44.6766 72.1641 44.7395 72.3102 44.7772C73.9426 45.1987 75.5814 45.6139 77.2202 46.0102C77.2901 45.9976 77.8808 45.3811 77.9952 45.2679C79.2401 43.9972 80.4787 42.6007 81.6094 41.267C81.7809 41.0594 82.1493 40.921 81.9905 40.6254L78.7955 33.3848L75.1558 32.611L73.5107 33.4854L73.517 33.4917ZM76.7883 39.21L74.7366 33.8377C74.5143 33.9258 74.5334 33.9698 74.5778 34.1963C74.6667 34.6681 75.1876 35.8948 75.3909 36.4232C75.7466 37.3416 76.223 38.216 76.4961 39.1722C76.5279 39.2414 76.7692 39.2225 76.7819 39.21H76.7883ZM73.7965 36.593C75.1368 36.0898 74.851 34.8128 73.2884 35.3663C72.6278 35.6054 71.0271 36.8447 70.5571 36.8006C70.3983 36.788 70.2331 36.5742 70.1378 36.7251C70.0044 36.9453 70.1378 37.4108 70.2839 37.6184C70.6587 38.1405 71.3002 38.021 71.7766 37.6939L71.1224 38.3859C70.7921 38.908 71.44 39.8705 71.5035 40.487C71.548 40.9525 71.4717 41.1727 71.224 41.5564L72.6341 40.8015C72.6977 40.7386 72.8437 40.531 72.8628 40.4555C72.9644 40.0844 72.4182 38.6878 72.2594 38.2349C72.2403 38.1846 72.1387 38.1846 72.126 38.1343C71.9862 37.5366 72.7612 37.2724 73.1423 36.9516L74.4571 40.0466C74.5397 40.1473 74.5207 40.1095 74.5905 40.0466C75.3528 39.3484 75.4607 38.0021 74.6985 37.2598C74.4381 37.0019 74.057 36.9516 73.8664 36.7755C73.8029 36.7188 73.7711 36.7063 73.7965 36.6056V36.593Z" fill="#EC8919"/>
<path d="M41.8657 50.2313V70.4182H21.5522V50.2313H41.8657ZM39.0581 52.5966C36.3649 50.3256 32.9285 52.043 32.6872 55.4274C32.4839 58.296 35.0945 63.7626 38.6452 62.429C42.196 61.0953 41.637 54.7669 39.0581 52.5903V52.5966ZM29.4159 60.699C29.1047 61.0702 28.7045 61.4728 28.317 61.7999C27.0149 62.907 25.5603 63.8507 24.1629 64.832C24.0104 64.2595 23.1656 63.36 22.8925 64.335C22.6765 65.1214 22.9814 66.5305 23.4134 67.2225C23.534 67.4112 23.9406 67.927 24.1946 67.7635C24.417 67.6125 24.1565 67.5873 24.093 67.5244C23.6166 67.0778 23.4007 66.411 23.3625 65.763C23.3435 65.4799 23.3117 64.6684 23.7437 64.7628C24.1438 64.8572 23.7818 65.0836 23.731 65.2283C23.5086 65.87 23.7564 66.606 24.0613 67.1721C24.1819 67.2602 24.4297 66.7821 24.5122 66.6878C25.014 66.1342 25.6873 65.5303 26.2654 65.0459C26.3289 64.9956 26.583 64.7817 26.6338 64.8257C25.7572 65.7064 25.465 67.2099 27.0848 67.3734C29.1745 67.5873 32.1917 65.9392 33.5193 64.442C33.9702 63.9324 34.5229 63.0392 34.0655 62.3849L33.659 62.0641C34.0782 61.9949 34.4466 62.1207 34.8341 62.171C34.923 62.1836 35.012 62.2591 34.9802 62.0955C34.9611 62.0075 33.8813 60.9821 33.7035 60.743C32.9285 59.724 32.4204 58.384 32.4775 57.1007L31.0547 59.1012C30.7181 59.3654 29.7462 60.655 29.4159 60.6864C29.5366 60.5417 29.778 60.3216 29.8161 60.158C29.8605 59.9693 29.9114 59.4472 29.689 59.4157C29.8796 59.2521 30.1083 58.9691 29.8605 58.7615C29.3905 58.9125 28.7871 58.9816 28.7807 59.5856C28.8697 59.5856 29.1555 59.617 29.1872 59.6673C29.2254 59.724 29.2254 60.5292 29.2635 60.6927H29.4159V60.699ZM28.2154 59.8938C27.5294 60.0322 27.1673 60.8437 28.0947 60.6046C28.6727 60.4537 29.1999 59.6925 28.2154 59.8938ZM28.5838 60.4977C27.8216 60.6676 28.063 61.0765 28.0947 61.6678C28.641 61.5042 28.6092 60.9695 28.5838 60.4977ZM27.5421 60.8374C26.9069 60.6927 25.6429 61.6426 26.9831 61.5986C26.6719 61.781 26.7862 62.0641 26.8434 62.3912C26.9196 62.8316 27.2245 62.5296 27.3007 62.2906C27.4024 61.9571 27.2372 61.5105 27.2753 61.3595C27.288 61.3029 27.6755 61.1142 27.5421 60.8374Z" fill="#EC8919"/>
<path d="M41.7958 28.8051V48.8536H21.5522V28.8051H41.7958ZM35.8885 40.4115C35.9203 40.0278 35.8885 39.5685 35.8885 39.1722C35.8885 39.1533 35.7996 39.1219 35.8186 39.0716H38.1498C38.5246 39.0716 38.8358 38.3104 38.8739 37.9959C38.9374 37.4737 38.7469 36.7566 38.1498 36.6622C37.8957 36.6245 37.3939 36.6056 37.1081 36.593C36.4983 36.5616 35.8758 36.593 35.266 36.593L35.8949 35.5299C35.9774 35.2279 36.0727 34.8694 36.0918 34.5548C36.0918 34.4353 35.9965 34.2655 36.0346 34.1963C36.0473 34.1711 36.3776 34.0264 36.4792 33.9132C37.2224 33.108 36.5301 31.7743 35.4502 31.9945C35.3296 32.0197 35.1708 32.1707 35.0882 32.1644C35.0056 32.1581 34.4085 31.6863 34.218 31.6045C33.6971 31.378 33.0111 31.3277 32.4458 31.3655C32.2616 31.378 32.0202 31.5038 31.8868 31.4976C31.728 31.4976 31.5756 31.2208 31.4358 31.1264C30.5593 30.5414 29.4921 31.4472 29.7526 32.4537C29.8034 32.6425 30.0321 32.9255 30.0384 32.9947C30.0384 33.0451 29.7272 33.7433 29.7018 34.0138C29.6509 34.5297 29.7526 35.0078 29.9114 35.4922C29.2 35.1965 28.4568 34.6932 27.7327 34.4479C26.3988 33.9887 25.8588 35.2594 26.151 36.3603L28.8697 37.8763C28.3869 38.8388 28.19 39.9523 28.3679 41.028L26.602 45.4126C26.5131 46.6015 28.1836 47.4256 29.219 47.1048C29.5366 47.0104 30.2417 45.8026 30.483 45.4629C30.6736 45.1924 30.8705 44.903 31.0928 44.6577C31.2072 44.7395 31.3596 47.0985 31.6073 47.4193C32.1599 48.1176 34.0655 48.1994 34.6435 47.52C34.8532 47.2684 34.8849 46.3688 34.9167 46.0039C35.012 44.9597 34.9611 43.7204 35.1326 42.7013C35.1771 42.4182 35.5201 41.9653 35.6344 41.613C35.7297 41.3111 35.8631 40.7323 35.8949 40.4241V40.4115H35.8885Z" fill="#EC8919"/>
<path d="M63.4302 28.7359L63.3603 32.6613C62.9919 32.7368 62.4012 32.7934 62.5981 33.2841L63.3603 33.2149V34.1082C62.9665 34.2026 60.1399 34.9512 60.0891 35.1084C60.0446 35.2594 60.1463 35.2028 60.2352 35.1839C61.2706 34.9323 62.2805 34.5674 63.3603 34.5234V48.9228H42.9771V28.7359H63.4302ZM56.5829 31.4661C57.0974 30.7678 57.9866 29.8116 56.7671 29.2392C56.2208 28.9813 55.7253 29.9752 55.4395 30.3715C54.4168 31.7995 53.5149 33.3156 52.5621 34.7876C51.0249 34.7876 48.8462 34.3535 47.3916 34.9386C46.4007 35.3349 47.1439 35.9262 47.1566 36.6308C47.163 37.0271 46.8962 37.6813 46.9406 37.9392C46.9788 38.1468 47.2455 38.2852 47.2836 38.3796C47.4043 38.669 47.417 40.4429 47.4297 40.9022C47.4424 41.418 47.417 41.9401 47.4297 42.456L47.0105 42.3176C47.2201 42.7957 47.163 43.4184 47.1503 43.9406C47.1376 44.4375 46.9343 44.4879 47.3916 44.9345C48.4969 46.0228 52.1619 46.9853 53.7245 47.1362C54.3152 47.1929 56.1763 47.2558 56.6083 46.8909C56.856 46.6833 56.9576 46.048 57.1037 45.7963C57.2752 45.507 57.6627 45.2994 57.8469 44.9534C57.9295 44.7961 57.9993 44.6263 57.9993 44.4501C57.8977 44.3558 57.3705 44.6388 57.4467 44.4187C57.542 44.123 57.8151 43.7078 57.9422 43.3933C58.101 43.0096 58.7997 41.0594 59.022 40.9525C59.1363 40.8959 59.3967 40.921 59.4603 40.8204C59.5238 40.7197 59.5301 40.3549 59.5746 40.1913C59.6826 39.7887 59.816 39.3484 60.0256 38.9898C60.267 38.5809 60.8132 38.2538 60.4639 37.7065C60.1145 37.1592 58.2852 36.3162 57.65 36.0835C57.2498 35.9388 56.64 35.8822 56.3097 35.6872C56.2208 35.6368 56.1636 35.6117 56.189 35.4984C56.3034 35.4984 56.4114 35.4859 56.5193 35.4418C58.3296 34.7121 60.1336 33.4414 61.982 32.7242C62.7188 32.5481 62.6299 30.9691 61.9947 30.9566C61.6263 30.9566 59.5492 32.2084 59.0855 32.4789C57.5928 33.3533 56.1636 34.385 54.6265 35.1525C54.3914 35.0581 53.9976 35.077 53.788 35.0141C53.5784 34.9512 53.8706 34.8505 53.8896 34.8253C54.7662 33.7182 55.7444 32.5984 56.5765 31.4724H56.5829V31.4661ZM50.7518 30.1262C50.1611 30.2457 50.4596 31.139 50.7899 31.1327C50.8661 31.1327 51.2218 30.9943 51.2345 30.9062C51.2409 30.8622 51.0503 30.2205 51.0122 30.1765C50.936 30.0822 50.8534 30.101 50.7518 30.1199V30.1262ZM51.5267 31.9694C51.6665 31.7429 51.1583 30.9691 50.8725 31.4284C50.7899 31.5605 50.9805 32.0637 51.0567 32.1078C51.1266 32.1455 51.5077 31.9945 51.5267 31.9694ZM50.9106 34.039C50.9868 33.9509 50.0277 32.2084 49.9006 32.0448C49.6275 31.6989 49.3798 32.2462 49.4878 32.5167C49.8816 32.913 50.2817 33.5232 50.6756 33.8943C50.7137 33.9321 50.8979 34.0579 50.9106 34.039ZM51.6665 32.3279C51.622 32.2965 51.2028 32.3279 51.2663 32.4789C51.5966 32.9885 51.749 33.5924 52.0539 34.1145C52.0793 34.1522 52.1175 34.3787 52.2254 34.2529C52.289 34.1774 51.7427 32.3908 51.6601 32.3279H51.6665ZM62.2361 33.5546C62.2805 33.4099 62.2297 33.2652 62.109 33.1835C61.2134 33.5672 60.1717 34.0013 59.3205 34.4919C59.2316 34.5423 59.1427 34.4794 59.1808 34.6618C60.2416 34.5045 61.2134 33.888 62.2297 33.5546H62.2361ZM45.0795 38.0965C45.2129 38.1783 45.5559 38.1091 45.6131 37.9204C45.6576 37.7631 45.4924 36.8824 45.3844 36.8698C45.2002 36.8509 44.9271 37.1718 44.8953 37.3479C44.8699 37.4737 45.0033 38.0462 45.0859 38.0965H45.0795ZM46.388 41.6885C46.1339 40.7323 46.0768 39.5874 45.7973 38.6564C45.6512 38.172 45.2193 38.5054 45.2193 38.6815C45.2193 38.9709 45.9942 40.9147 45.8989 41.0028C44.2347 40.7134 44.781 42.11 45.3146 42.997C45.3717 43.0976 45.9815 44.0286 46.1085 43.8965C45.8608 43.0976 45.3209 42.3616 45.4162 41.4872C45.6004 41.5061 45.8291 41.4557 46.0069 41.4872C46.1848 41.5186 46.2102 41.7074 46.388 41.6948V41.6885ZM61.4611 39.5622C61.2325 39.6377 60.6735 40.5499 61.3849 40.5876C61.5691 40.6002 62.0391 39.9145 62.0391 39.795C62.0391 39.5748 61.6136 39.5119 61.4548 39.5685H61.4611V39.5622ZM60.7624 40.7323C60.61 40.7701 60.0002 41.6004 60.5591 41.6822C60.7624 41.7074 61.1943 41.1098 61.1943 41.0343C61.1943 40.9777 60.9022 40.6946 60.7688 40.7323H60.7624ZM60.0256 41.8269C59.6064 42.8774 58.8441 43.8022 58.3169 44.7835C58.2534 44.8968 58.0819 45.1044 58.2471 45.1987L60.5083 42.0659C60.4194 41.9842 60.1272 41.7577 60.0256 41.8269Z" fill="#EC8919"/>
<path d="M84.8552 50.2313V70.3804L64.4719 70.481V50.225H84.8552V50.2313ZM79.8054 54.8864C74.743 49.6651 66.0281 53.8862 66.9873 61.0702C67.578 65.4736 72.1959 68.424 76.5088 67.1407C81.7618 65.5743 83.7055 58.9062 79.8054 54.8927V54.8864Z" fill="#EC8919"/>
<path d="M20.4468 50.2313V70.4182H0.0634766V50.2313H20.4468ZM20.072 58.8936C20.4976 58.0003 19.3542 56.0313 18.6301 55.44C16.0195 53.3074 11.1793 53.6031 8.22569 54.8361C7.70483 55.05 7.23479 55.4148 6.72028 55.5972C6.65041 55.5784 5.74844 54.6914 5.69763 54.6096C5.58329 54.4209 5.58329 54.1504 5.48166 53.9239C5.2784 53.4521 4.80201 53.1376 4.37008 52.8922C3.83016 52.584 3.20132 52.3638 2.636 52.0933C2.9663 53.1753 2.88373 54.1441 3.97626 54.792C4.29385 54.9808 4.72578 55.0563 4.99256 55.2324C5.08149 55.289 5.81831 56.0061 5.82466 56.0628C5.85007 56.2137 4.51617 57.1573 4.3002 57.3586C2.54072 58.9691 1.50536 61.1897 2.83926 63.4229C4.28115 65.8385 6.75204 65.222 8.94345 64.2973C9.2674 64.1589 9.61676 63.8632 9.95341 63.7815C10.1249 63.7374 10.6394 63.6305 10.6394 63.9073C10.4997 63.9387 10.398 64.3854 10.3726 64.5426C10.271 65.329 10.6839 66.2852 11.5223 66.4739C12.0686 66.5997 12.8181 66.5871 13.3644 66.4739C13.5994 66.4236 14.5649 66.1027 14.7555 66.0084C14.8317 65.9706 15.3398 65.4485 15.505 65.5995C15.5177 65.6121 15.5177 65.7693 15.6066 65.8763C15.8226 66.1405 16.407 66.5808 16.6928 66.8702C16.7944 66.9708 16.8198 67.1407 16.9342 67.2539C17.1692 67.493 17.8869 68.1912 18.122 68.3548C18.7063 68.7574 19.1446 68.3233 18.8143 67.7383L16.21 65.0836C17.671 63.9639 19.0239 62.4604 19.6528 60.7053C19.8497 60.1643 19.9323 59.2207 20.0847 58.8999H20.072V58.8936Z" fill="#EC8919"/>
<path d="M63.1505 50.5081V70.2106H59.187V54.5027H47.2263V70.2798H43.2945L43.2563 50.5081H63.1505Z" fill="#EC8919"/>
<path d="M96.0537 56.2955C96.0982 56.3395 96.0919 56.4402 95.9585 56.4276C95.3233 56.3521 95.0438 56.1634 94.3705 56.4528C92.9731 57.0567 93.0493 58.8181 94.2498 59.6359C95.3042 60.353 97.0828 59.5541 96.8033 58.2079C96.6254 57.3461 94.8786 56.8176 94.5039 57.8996C94.2752 58.5602 95.2725 59.2899 95.6282 58.8055C95.9077 58.4281 95.1708 58.233 95.0057 57.9814C94.9485 57.7298 95.6663 57.7235 95.8441 57.7738C96.3332 57.9122 96.5428 59.5415 95.4567 59.6736C94.3705 59.8057 93.4241 58.8055 93.875 57.7675C94.6817 55.9244 98.1626 56.8868 97.1463 59.2207C96.4031 60.9318 94.0529 60.8626 93.1763 59.2396C92.4522 57.9059 93.4558 56.1005 95.0311 56.0879C95.1454 56.0879 96.0029 56.2641 96.041 56.3018H96.0537V56.2955Z" fill="#EC8919"/>
<path d="M93.2015 55.7419L92.3123 56.7547C91.7787 57.6354 91.8994 58.7803 92.3123 59.6862C92.4584 60.0007 92.7061 60.2712 92.8903 60.5606C92.2424 60.1203 92.0391 59.4912 91.7025 58.8432C91.658 58.7615 91.4675 58.6545 91.5373 58.5665C91.5373 58.5539 91.6961 58.5665 91.7343 58.4532C91.7597 58.3777 91.7597 57.7927 91.7343 57.7487C91.6072 57.5537 91.3277 57.8116 91.188 57.7738C91.2706 57.5851 91.7533 57.5599 91.8041 57.5222C91.8295 57.497 91.9693 56.9686 92.0455 56.8302C92.1852 56.5723 92.5282 56.2074 92.7569 56.0187C92.8776 55.9244 93.0555 55.7671 93.2079 55.7419H93.2015Z" fill="#EC8919"/>
<path d="M81.1712 40.034L78.1223 39.6126L75.6069 33.3533L78.5669 33.9698L81.1712 40.034ZM77.2711 34.385C77.2711 34.385 77.125 34.3598 77.1314 34.4164C77.0806 34.8379 77.1695 35.4859 77.4045 35.8507C77.4617 35.9388 78.2366 36.4295 78.3637 36.5175C78.4526 36.5804 78.5923 36.5867 78.6622 36.6937C78.4653 36.9327 78.0588 37.0019 77.9825 37.329C77.8619 37.87 78.1477 38.411 78.2493 38.9332C78.6686 38.8199 79.0624 38.4802 79.1513 38.0399C79.2466 37.9707 79.7865 39.015 79.9135 38.864C79.9389 38.4488 79.8881 38.0399 79.7992 37.6373C79.7357 37.3542 79.38 36.2785 79.2212 36.0898C79.145 36.0017 78.9607 36.0206 78.8528 35.9577C78.3256 35.6494 77.8047 34.9889 77.341 34.5611C77.2838 34.5108 77.2838 34.3976 77.2711 34.385Z" fill="#EC8919"/>
<path d="M76.7883 45.1987C75.2003 44.8087 73.625 44.3746 72.0497 43.9343C71.8211 43.8714 71.5797 43.9406 71.4336 43.7141L77.4107 40.5121L76.7819 45.1987H76.7883ZM76.8581 41.2733L72.4054 43.6512C72.5325 43.8211 72.704 43.7644 72.8755 43.7015C73.5932 43.4499 74.6794 42.7202 75.3972 42.3427C75.5242 42.2735 76.4707 41.7829 76.5088 41.8269C76.4008 42.8145 76.1848 43.7959 76.1594 44.7898H76.3627L76.8518 41.2796H76.8581V41.2733Z" fill="#EC8919"/>
<path d="M77.8555 44.469C77.7348 44.6011 77.6522 44.7961 77.5188 44.9282L77.4871 44.5508L78.1159 40.3171L81.1775 40.7575C81.3046 40.8518 81.1966 40.8581 81.1394 40.9273C80.3073 42.0534 78.8527 43.3996 77.8618 44.469H77.8555Z" fill="#EC8919"/>
<path d="M73.1677 33.7622C73.1677 33.7622 72.7612 33.9383 72.685 33.9698L72.0562 31.6989C72.1705 31.573 72.5389 32.177 72.5834 32.2461C72.6723 32.4097 73.2186 33.6993 73.1677 33.7622Z" fill="#EC8919"/>
<path d="M35.3799 55.8929C37.2474 55.5532 38.251 57.9437 37.6984 59.4283C37.5777 59.7491 37.2093 60.2335 36.8599 60.3216C35.1513 60.7619 34.1096 58.3903 34.4589 57.0441C34.5732 56.6038 34.8908 55.981 35.3799 55.8929Z" fill="#EC8919"/>
<path d="M33.7987 57.4656C33.697 57.4782 33.7034 57.3524 33.678 57.2769C33.2587 56.1634 33.2397 54.4398 33.9193 53.4207C34.0972 53.1565 34.383 52.9489 34.599 52.7161C34.7642 52.6847 34.6816 52.7916 34.7006 52.886C34.7387 53.0432 34.9102 53.5528 34.8975 53.6346C34.8721 53.7541 34.6498 53.817 34.5672 53.9176C34.2496 54.2825 33.805 55.2387 33.805 55.7105V57.4656H33.7987Z" fill="#EC8919"/>
<path d="M27.2561 64.5678C27.2561 64.5678 27.1163 64.593 27.1227 64.5301C28.6662 63.5298 30.6925 62.2969 32.5853 62.1522C33.392 62.0893 33.6271 62.4919 33.3095 63.209C32.6616 64.6873 29.0854 66.5871 27.5292 66.1279C27.2307 66.0398 26.9194 65.7442 26.9194 65.4233C26.9194 65.1717 27.2942 64.5993 27.2624 64.5678H27.2561Z" fill="#EC8919"/>
<path d="M32.9603 60.2209C32.9603 60.2209 33.2652 60.7305 33.3477 60.8374C33.5574 61.0953 33.8178 61.3218 34.002 61.5986C31.8995 61.6175 29.8605 62.3661 28.0693 63.404L25.9351 64.7691L28.6537 62.2277C28.7744 62.1585 28.9141 62.3409 29.0348 62.3598C29.435 62.4227 29.4667 61.932 29.6319 61.6804C29.8161 61.5923 29.9114 61.8439 30.0193 61.8691C30.3433 61.9572 30.5021 61.2149 30.6355 61.1897C31.62 62.0138 31.6073 60.8374 31.8169 60.7745C32.0265 60.7116 32.3568 61.3595 32.6427 60.8374C32.6998 60.7368 32.7824 60.0762 32.9603 60.2209Z" fill="#EC8919"/>
<path d="M35.2594 38.7256C35.3547 39.5874 35.4309 40.6317 35.1388 41.4683C35.0117 41.8458 34.7386 42.2043 34.6497 42.6384C34.5163 43.2738 34.4782 44.1608 34.4273 44.8276C34.3892 45.2616 34.4718 46.8217 34.186 47.0733C33.8049 47.4068 32.363 47.325 32.0263 46.9287C31.8485 46.7148 31.5499 44.3432 31.4102 43.8148C31.2768 43.3178 30.9147 42.4308 30.5717 42.0597C30.4955 41.9716 29.403 41.2607 29.2886 41.2293C29.2378 41.2167 28.9139 41.1601 28.9901 41.3174C29.0155 41.3677 29.7714 41.8395 29.9238 41.9716C30.5082 42.4686 31.01 43.1165 31.1116 43.8965C30.6035 44.2174 29.4855 46.3814 29.079 46.5009C28.8948 46.5575 28.0119 46.3499 27.8213 46.2556C27.7197 46.2052 27.2497 45.7208 27.2179 45.6139C27.1862 45.5195 27.1798 45.4818 27.1862 45.3874C27.1862 45.3497 27.3513 44.6577 27.3704 44.6011C27.7769 43.5317 28.6153 42.1666 28.8377 41.0217C28.9012 40.6757 28.7805 40.4492 28.7805 40.141C28.7805 39.3547 29.1489 38.5054 29.4792 37.8008L26.786 36.3666C26.551 35.9703 26.8114 34.9826 27.3195 34.9008C27.8277 34.8191 30.4447 36.4546 30.7305 36.247C30.3367 35.4418 30.0382 34.7436 30.2795 33.8377C30.324 33.6553 30.6098 33.1143 30.5971 33.0514C30.5971 33.001 30.1207 32.8941 30.1843 32.2273C30.216 31.8561 30.2922 31.9882 30.4256 31.8813C30.6098 31.7366 30.5717 31.68 30.9084 31.6926C31.5245 31.7177 31.4737 32.2462 31.5372 32.2524C31.6706 32.2713 32.255 32.0637 32.5091 32.0449C33.4555 31.9757 34.0589 32.177 34.764 32.7746C34.8212 32.8249 34.8275 32.9444 34.872 32.9444C34.98 32.9444 35.1896 32.718 35.3738 32.6802C35.9899 32.5544 36.3774 33.0577 36.1932 33.6301C36.0852 33.9824 35.577 34.0579 35.5389 34.1208C35.4881 34.2089 35.5389 34.7876 35.5262 34.97C35.4754 35.4733 35.1642 35.9828 34.8275 36.3477C34.5988 36.5993 34.2177 36.7251 34.2749 37.0711H37.508C37.508 37.0711 37.851 37.1592 37.8891 37.1781C38.4227 37.4486 38.1051 38.2852 37.9654 38.7256H35.2531H35.2594ZM32.3884 33.8125C32.6679 33.5735 32.4455 33.1457 32.1279 33.2401C31.5499 33.4225 32.0898 34.0642 32.3884 33.8125ZM34.1352 33.6364C33.9128 33.498 33.4809 33.7308 33.6206 34.039C33.9255 34.6995 34.4655 33.844 34.1352 33.6364ZM33.6079 36.4798C33.6079 36.4798 33.7159 36.5113 33.7985 36.4295C34.5163 35.7438 34.1479 34.6052 33.2903 34.2403C31.353 33.4099 30.1144 35.9199 32.1279 36.593C32.0835 36.6434 31.9183 36.8447 31.9056 36.8572C31.7341 36.9579 30.1525 36.2785 29.8349 36.2533L29.9048 38.4551C30.4193 38.2789 30.9655 38.2097 31.5055 38.1783L30.6035 39.8327C30.7051 39.9271 31.9882 39.2288 32.1661 39.0779C32.4392 39.5245 32.6806 39.99 32.9473 40.4429C32.9982 40.531 32.9092 40.6317 33.1061 40.5939C33.0934 39.9019 33.157 39.21 33.0363 38.5306L34.4273 39.5622L35.5389 37.631L33.3094 37.3228C33.176 37.241 33.3729 36.939 33.3094 36.8698C33.2903 36.851 33.0617 36.9201 32.96 36.9076C32.8584 36.895 32.5218 36.8321 32.4773 36.7314C32.833 36.7503 33.1697 36.7314 33.5063 36.6119C33.5825 36.5867 33.5889 36.4924 33.6079 36.4798ZM27.6689 35.3601C27.3132 35.1399 26.8749 35.9828 27.3767 36.1653C27.6498 36.2659 27.8468 35.4733 27.6689 35.3601ZM37.3619 38.2978C37.7113 38.6501 38.0162 37.7568 37.7684 37.587C37.3492 37.3039 37.1904 38.1154 37.3619 38.2978ZM31.7278 40.292C32.0136 40.5751 32.5853 40.1347 32.1915 39.795C31.7976 39.4553 31.4546 40.0278 31.7278 40.292ZM31.6261 41.2167C31.2641 41.3236 31.4928 41.9338 31.9247 41.72C32.2169 41.5753 32.039 41.0909 31.6261 41.2167ZM34.2177 42.5126H32.9982C32.9982 42.5126 32.4582 42.695 32.382 42.7265C32.1724 42.8208 31.6198 43.1668 31.588 43.387C31.5118 43.8777 32.1915 43.2926 32.382 43.2109C32.5599 43.1291 32.9219 42.9907 33.0998 42.9592C33.5635 42.8774 34.3448 43.1479 34.2177 42.5126ZM28.7678 45.4315C28.6471 45.3057 27.834 44.8779 27.7515 45.1673C27.6816 45.4189 28.6852 46.1297 28.8694 45.9976C29.0346 45.8718 28.8948 45.5573 28.7741 45.4315H28.7678ZM32.5916 46.3122C32.4773 46.3499 32.4582 46.4254 32.4837 46.5323C32.5662 46.8406 33.6715 46.8658 33.7286 46.677C33.8557 46.243 32.833 46.2367 32.5916 46.3122Z" fill="#EC8919"/>
<path d="M56.6843 37.1403C56.6589 37.2724 56.5382 37.2535 56.4429 37.2787C55.9856 37.4045 55.3949 37.4297 54.9185 37.4926C54.8105 37.5052 54.4992 37.5241 54.4548 37.6184C55.7125 37.782 57.0209 37.8323 58.2786 37.6876C58.4438 37.4674 56.481 36.6371 56.2778 36.5993C55.6997 36.505 55.0582 36.9642 54.4484 36.8572C54.7914 36.0772 54.8359 35.9325 55.6998 36.1338C56.4683 36.3099 58.5327 37.0271 58.971 37.6499C59.0726 37.7946 59.1488 38.0839 59.0282 38.2223C58.9138 38.3544 57.9801 38.4425 57.7578 38.5809C55.9729 38.5369 54.2452 38.4299 52.4984 38.0651C51.7489 37.9078 49.17 37.2347 48.7825 36.6496C48.16 35.7123 50.307 35.706 50.7961 35.6872C50.8786 35.6872 51.0565 35.7375 51.0374 35.618C50.1228 35.5425 48.9032 35.3726 48.1854 36.0332C48.0775 35.5991 48.2108 35.511 48.6047 35.3789C49.748 35.0015 50.9866 35.316 52.149 35.4104C52.1871 35.4418 51.8886 35.9136 51.8505 35.9388C51.6663 36.0961 51.2852 36.0772 51.1899 36.4861C50.9485 37.5429 51.9204 38.0021 52.4984 37.2347C52.7969 36.8321 52.5937 36.6937 52.6508 36.4232C52.6699 36.3225 53.1399 35.662 53.2352 35.6243C53.6417 35.4544 53.1336 36.0017 53.1082 36.052C52.9557 36.3414 52.9494 36.7125 53.2225 36.9327C53.2543 36.9579 53.6163 37.134 53.6417 37.134H56.6843V37.1403Z" fill="#EC8919"/>
<path d="M58.6345 39.688C58.933 39.7321 59.0092 40.0592 58.9838 40.3108C56.5764 40.5436 54.1309 40.2542 51.7871 39.688C50.5739 39.3924 49.1383 38.9646 48.0585 38.3481C47.9188 38.2726 47.4424 38.0084 47.4424 37.8763C47.4551 37.5807 47.8997 37.7065 47.9251 37.4486C47.9442 37.2284 47.5377 37.0271 47.6393 36.7251C49.9069 38.1154 52.8923 38.7885 55.5347 39.0653C56.7733 39.1974 58.1517 39.2854 59.3586 38.9961C59.3141 39.4113 58.8377 39.4113 58.6281 39.6818H58.6345V39.688ZM49.4623 38.6438C49.945 38.9143 50.1419 37.977 49.5512 37.9707C49.2209 37.9707 49.2781 38.5431 49.4623 38.6438ZM53.2607 39.0149C53.2607 39.0149 52.9431 38.8703 52.8987 38.8765C52.6192 38.9269 52.5366 39.449 52.8542 39.5937C53.2036 39.7447 53.4005 39.2414 53.2544 39.0149H53.2607ZM56.875 40.0215C57.326 39.5497 56.5066 39.0527 56.3668 39.6943C56.2969 40.0215 56.7098 40.1976 56.875 40.0215Z" fill="#EC8919"/>
<path d="M49.1002 40.38L49.7989 43.6197L52.3016 41.072L53.7625 44.6514C52.8288 44.5759 51.8951 44.3746 50.9994 44.1167C50.4532 43.9657 49.6909 43.7204 49.1764 43.5128C48.9922 43.4373 48.0839 42.997 47.995 42.8963C47.8362 42.7202 47.9632 41.8143 47.9378 41.5249C48.2935 41.2544 48.5857 40.7701 48.897 40.4807C48.9668 40.4178 48.9986 40.3549 49.1066 40.38H49.1002Z" fill="#EC8919"/>
<path d="M47.6392 43.3052C47.6392 43.2612 47.4868 43.1228 47.6011 43.0662C50.1292 45.0163 53.7625 45.4378 56.8876 45.3057C56.5446 45.7271 56.335 46.0668 56.2651 46.6204C54.3341 46.7714 52.3206 46.4002 50.5039 45.7712C50.1228 45.6391 47.6392 44.6011 47.6392 44.3432C47.6392 44.0098 47.6646 43.6386 47.6392 43.3115V43.3052ZM49.5003 44.4501C49.2209 44.5193 49.2653 45.0226 49.5384 45.1484C50.199 45.4566 49.9894 44.3306 49.5003 44.4501ZM53.502 46.0794C53.8006 46.3625 54.2262 45.9536 54.0801 45.6076C53.699 45.2868 53.2289 45.8215 53.502 46.0794Z" fill="#EC8919"/>
<path d="M58.2151 40.6568L57.2433 43.7581L56.4112 40.726L53.8704 43.5505C53.4194 42.5881 53.3495 41.3173 52.9113 40.3674C52.8604 40.2542 52.7715 40.2102 52.7207 40.1095C54.5374 40.3863 56.3604 40.7071 58.2151 40.6631V40.6568Z" fill="#EC8919"/>
<path d="M52.6511 40.0341L52.3335 40.1662C51.8317 40.7449 51.3045 41.3111 50.7773 41.8584C50.701 41.9401 50.2246 42.4497 50.1484 42.3742L49.3798 39.2037C49.2846 39.1219 48.9987 39.405 48.9352 39.4805C48.5986 39.8579 48.3762 40.4304 47.9951 40.7889L48.065 38.5872C48.7446 38.8137 49.4052 39.1282 50.0976 39.3672C50.9297 39.6503 51.7936 39.8894 52.6574 40.0341H52.6511Z" fill="#EC8919"/>
<path d="M54.334 36.1967C54.2896 36.2722 54.315 36.4106 54.2642 36.505C53.6163 37.6436 52.7524 35.7375 54.1752 35.9388C56.6271 34.6366 59.0154 32.8249 61.48 31.5982C61.6515 31.5101 61.9436 31.2963 62.0707 31.5668C62.185 31.7995 62.0707 32.1203 61.8547 32.2462C59.9301 33.2653 57.9483 34.19 56.0364 35.2342C55.814 35.3538 54.3912 36.1212 54.3404 36.203H54.334V36.1967Z" fill="#EC8919"/>
<path d="M57.0275 44.5759C56.7354 44.7458 53.8262 44.7898 53.8325 44.6137L56.0239 41.8961C56.2272 42.1918 57.1228 44.469 57.0275 44.5759Z" fill="#EC8919"/>
<path d="M51.5522 36.4735C51.6538 36.3666 51.9333 36.3729 52.0286 36.2722C52.3462 35.9262 52.7908 35.0455 53.0957 34.624C54.131 33.1772 55.141 31.5668 56.2145 30.1639C56.7925 29.409 56.983 29.7739 56.8433 30.5791L52.3144 36.2911C52.1683 36.5553 52.505 36.7063 52.2255 37.0963C51.7618 37.7568 51.2028 36.8384 51.5585 36.4672L51.5522 36.4735Z" fill="#EC8919"/>
<path d="M80.1232 63.7311L79.9834 61.5294C79.9008 61.4413 78.243 62.5044 78.0016 62.5548L75.8102 61.7307C75.8102 62.6051 75.734 63.4795 75.6387 64.3476L73.587 65.6246L75.6006 66.5557C74.2984 66.7381 72.99 66.5619 71.7958 66.0147C71.6561 65.9517 70.7668 65.4988 70.7287 65.4485C70.6779 65.3793 70.7541 65.329 70.8049 65.2849C71.2051 64.8886 71.637 64.486 72.0499 64.1086C72.9582 63.2782 73.9491 62.5296 74.9273 61.7936C76.8329 60.353 78.7829 58.9691 80.9934 58.0192C81.6159 59.9504 81.2538 62.0641 80.1232 63.7374V63.7311Z" fill="#EC8919"/>
<path d="M75.6387 53.471C76.0008 53.5087 76.6868 53.7352 77.0488 53.8673C78.0143 54.207 78.7892 54.7417 79.5007 55.4714C75.3275 56.5786 71.4274 58.4532 67.9529 60.9821V59.0886C67.9529 58.9691 68.226 57.8493 68.2895 57.6984C68.5627 57.0315 69.128 56.3773 69.4837 55.7482L69.6234 58.2268L71.2559 56.8051L73.4473 57.6103L73.7395 55.7608L75.8801 55.2639C75.9563 55.1947 75.6577 54.9367 75.6006 54.8864C75.2258 54.5341 74.7304 54.2007 74.3239 53.8422C74.1841 53.7226 73.9681 53.622 73.8602 53.471C74.4255 53.515 75.0797 53.4081 75.6323 53.471H75.6387Z" fill="#EC8919"/>
<path d="M80.1929 56.2955C77.036 57.1196 74.0315 58.8181 71.4082 60.7179C70.4491 61.4099 69.5344 62.1585 68.715 63.014L70.3855 63.253V61.9446L71.9164 62.1522L71.9862 60.9129L73.5107 61.1142L73.7266 59.812L75.1876 60.0196L75.3972 58.9187L76.6041 59.1892C77.0106 58.8873 76.7184 58.0318 77.3599 58.1072C77.7093 58.145 77.9697 58.5098 78.3064 58.3589L78.6684 57.3398L79.7101 57.5851L80.1993 56.3081C80.4724 56.6981 80.682 57.0315 80.8408 57.5033C80.8598 57.5662 80.9297 57.5851 80.8281 57.648C76.8137 59.3717 73.0343 61.7244 69.8012 64.637C69.7122 64.637 68.8484 63.511 68.7467 63.3411C68.6134 63.1146 68.2259 62.3283 68.3656 62.1207C70.3601 60.4977 72.5452 59.1012 74.8382 57.9185C75.8291 57.409 76.9344 56.8743 77.9697 56.4717C78.2619 56.3584 79.6276 55.8363 79.8245 55.8237C79.996 55.8174 80.1167 56.1823 80.1929 56.2955Z" fill="#EC8919"/>
<path d="M76.4261 64.4797C76.4515 63.8255 76.3944 63.1461 76.2991 62.4982L78.0649 63.5927L79.3607 62.429C79.2527 62.8504 79.3289 63.2782 79.2908 63.6997C79.2654 63.9702 79.221 64.637 79.132 64.8509C78.9923 65.1969 77.398 66.1845 77.0232 66.2097L74.6984 65.6246C74.5777 65.5366 74.6666 65.524 74.7429 65.4611C74.9969 65.2661 76.3372 64.6118 76.4198 64.4734H76.4261V64.4797Z" fill="#EC8919"/>
<path d="M73.0279 54.9871C73.1232 55.6035 73.0978 56.2263 73.0978 56.8491L71.3256 55.9495C70.9635 56.4087 70.4935 56.7673 70.0361 57.1259C70.0552 56.4339 70.0996 55.7419 70.2076 55.0625C70.6015 54.5719 72.4753 53.4836 73.0279 53.6408C73.1867 53.6849 74.5206 54.6536 74.7493 54.8298C74.8064 54.8738 74.8763 54.8298 74.8382 54.9871H73.0279Z" fill="#EC8919"/>
<path d="M18.4017 56.1131C20.6947 58.3337 18.84 61.7433 16.8264 63.4292C15.7466 64.335 12.9327 65.958 11.5226 65.719C10.9128 65.6183 10.7984 65.2157 10.8493 64.6684C10.9001 64.0708 11.8275 63.014 10.8683 62.7246C9.9727 62.4541 8.22592 63.5802 7.27314 63.8821C5.65975 64.3917 3.89392 64.5363 3.11898 62.7561C1.98199 60.1391 4.32585 57.8808 6.28859 56.5157L12.2848 62.5044C11.7893 63.2971 11.5607 64.5489 12.8311 64.6433C13.9554 64.7251 15.3401 63.8507 15.8736 62.8945C17.2329 60.4411 14.0125 60.2901 12.9073 61.8125L7.10163 55.9621C8.28309 55.44 9.38197 54.899 10.6587 54.6285C13.0597 54.1252 16.5596 54.3265 18.4144 56.1194H18.4017V56.1131ZM13.9935 57.4467C14.2221 57.7298 16.0007 57.6229 16.4326 57.7361C16.801 57.3146 16.585 56.3458 16.2357 55.9495C15.9117 55.5847 15.0987 55.4085 14.6731 55.6476C14.4063 55.7985 14.6032 56.132 14.5143 56.2829C14.4699 56.3647 14.0824 56.5283 13.9681 56.8114C13.8982 56.9812 13.8728 57.3083 13.9935 57.453V57.4467ZM11.3511 57.6229C11.5988 57.3146 12.4881 57.3901 12.1832 56.6604C11.9481 56.0942 11.1351 55.8677 10.5888 56.1445C9.58523 56.6604 9.54077 58.491 10.8048 58.2897C11.313 58.2079 11.1859 57.8242 11.3511 57.6229ZM5.1643 60.1077C4.77683 60.4914 5.37391 60.7745 5.50095 61.2023C5.62799 61.63 5.37391 62.0452 6.06627 62.0515C6.61889 62.0515 7.46369 61.5986 7.60979 61.045C7.74953 60.5229 7.47005 59.4409 6.83485 59.4094C6.67606 59.4031 5.30404 59.9693 5.1643 60.1014V60.1077Z" fill="#EC8919"/>
<path d="M15.0669 63.0895C14.9716 63.209 14.673 63.2845 14.673 63.5235C14.6413 63.5235 14.5968 63.5361 14.5714 63.5235C14.5333 63.5047 13.9743 62.9259 13.987 62.8819C14.2665 62.5736 14.8826 62.0138 15.3273 62.1585C15.6512 62.2654 15.2002 62.9322 15.0732 63.0895H15.0669Z" fill="#EC8919"/>
<path d="M13.7648 64.0771C13.2376 64.3162 12.7294 63.9199 13.371 63.599C13.4536 63.6682 13.8347 63.9765 13.7648 64.0771Z" fill="#EC8919"/>
<path d="M33.5697 34.8253C33.8746 35.1273 33.9317 35.6117 33.6967 35.9703C32.9091 37.1592 30.4763 35.6494 31.8229 34.6681C32.2993 34.3158 33.1632 34.4164 33.5697 34.8316V34.8253ZM32.7376 34.6052C32.1596 34.7247 32.2802 35.5865 32.782 35.5614C33.4172 35.5299 33.2711 34.4982 32.7376 34.6052Z" fill="#EC8919"/>
<path d="M30.1841 38.0399V36.6622C30.6033 36.9264 31.2893 36.9705 31.6958 37.1969C31.8991 37.3102 31.8864 37.4612 31.7721 37.6499C31.6196 37.8952 30.5017 37.9141 30.1841 38.0399Z" fill="#EC8919"/>
<path d="M34.9099 37.8323C35.0179 37.9392 34.3573 38.908 34.2493 39.0716C34.1159 38.8388 33.0742 38.1468 33.0488 37.9959C33.0297 37.9015 33.1314 37.7442 33.0996 37.6247C33.703 37.6813 34.3001 37.8575 34.9099 37.8323Z" fill="#EC8919"/>
<path d="M32.6742 38.1846C32.744 38.2915 32.6996 39.2037 32.8203 39.4176C32.617 39.4616 32.7123 39.3484 32.6615 39.2666C32.6107 39.1848 32.3883 38.7319 32.3566 38.7256C32.0453 38.6501 31.5054 39.1471 31.4292 39.0716C31.4864 38.9332 31.8802 38.0776 31.9246 38.0525C32.0263 37.9896 32.6297 38.128 32.6678 38.1909H32.6742V38.1846Z" fill="#EC8919"/>
<path d="M32.8967 37.2095L32.757 37.8952C32.0519 37.8071 32.1028 37.7946 32.2044 37.1403L32.9031 37.2095H32.8967Z" fill="#EC8919"/>
</g>
<defs>
<clipPath id="clip0_157_798">
<rect width="134" height="85" fill="white"/>
</clipPath>
</defs>
</svg>
